# xmcd CD database file
#
# Track frame offsets:
#	150
#	15865
#	53832
#	73850
#	94800
#
# Disc length: 1568 seconds
#
# Revision: 0
# Processed by: cddbd v1.5.1PL0 Copyright (c) Steve Scherf et al.
# Submitted via: CDex 1.51
#
DISCID=37061e05
DTITLE=おしゃれテレビ - Ｖ．Ａ
DYEAR=1986
DGENRE=Techno
TTITLE0=恋のテロリストNO.1
TTITLE1=踊るクエン酸回路
TTITLE2=真昼の星
TTITLE3=Music Bomb Start!
TTITLE4=アジアの恋
EXTD=YEAR: 1986
EXTT0=
EXTT1=
EXTT2=
EXTT3=
EXTT4=
PLAYORDER=
